# xmcd
# Copyright (C) 1995-1998 Ti Kan
#
# Track frame offsets:
#       151
#       14855
#       35482
#       62153
#       75528
#       106468
#       139506
#       152078
#       165390
#       198627
#       221602
#       236881
#       260535
#       277948
#       296824
#       315750
#       332912
#
# Disc length: 4687 seconds
#
# Revision: 0
# Processed by: cddbd v1.5.2PL0 Copyright (c) Steve Scherf et al.
# Submitted via: CD-Transfer v1.0
#
DISCID=f9124d11
DTITLE=Burdon, Eric - 
DYEAR=1900
DGENRE=
TTITLE0=San Francisco Night
TTITLE1=Ring Of Fire
TTITLE2=Paint It Black
TTITLE3=When I Was Young
TTITLE4=To Love Somebody
TTITLE5=River Deep, Mountain High
TTITLE6=See See Rider
TTITLE7=Good Times
TTITLE8=Sky Pilot
TTITLE9=I'm An Animal
TTITLE10=Anything
TTITLE11=Ride On
TTITLE12=Hollywood Women
TTITLE13=Darkness, Darkness
TTITLE14=Hallelujah
TTITLE15=Winds Of Change
TTITLE16=Monterey
EXTD=
EXTT0=
EXTT1=
EXTT2=
EXTT3=
EXTT4=
EXTT5=
EXTT6=
EXTT7=
EXTT8=
EXTT9=
EXTT10=
EXTT11=
EXTT12=
EXTT13=
EXTT14=
EXTT15=
EXTT16=
PLAYORDER=
